<mxfile host="65bd71144e">
    <diagram id="BfYJOLg3n9yfXE8O1teU" name="Page-1">
        <mxGraphModel dx="1942" dy="1278" grid="0" gridSize="10" guides="1" tooltips="1" connect="1" arrows="1" fold="1" page="0" pageScale="1" pageWidth="827" pageHeight="1169" background="#ffffff" math="0" shadow="0">
            <root>
                <mxCell id="0"/>
                <mxCell id="1" parent="0"/>
                <mxCell id="254" value="" style="rounded=0;whiteSpace=wrap;html=1;strokeWidth=0.5;fontSize=8;fillColor=none;movable=0;resizable=0;rotatable=0;deletable=0;editable=0;connectable=0;" parent="1" vertex="1">
                    <mxGeometry x="-93.52" y="-262" width="1667.52" height="1070" as="geometry"/>
                </mxCell>
                <mxCell id="2" value="Utenti" style="shape=table;startSize=30;container=1;collapsible=1;childLayout=tableLayout;fixedRows=1;rowLines=0;fontStyle=1;align=center;resizeLast=1;fillColor=#f8cecc;strokeColor=#b85450;rounded=1;" parent="1" vertex="1">
                    <mxGeometry x="-61" y="-203" width="345" height="334" as="geometry">
                        <mxRectangle x="-25" y="-203" width="69" height="30" as="alternateBounds"/>
                    </mxGeometry>
                </mxCell>
                <mxCell id="84" style="shape=tableRow;horizontal=0;startSize=0;swimlaneHead=0;swimlaneBody=0;fillColor=none;collapsible=0;dropTarget=0;points=[[0,0.5],[1,0.5]];portConstraint=eastwest;top=0;left=0;right=0;bottom=1;rounded=1;" parent="2" vertex="1">
                    <mxGeometry y="30" width="345" height="30" as="geometry"/>
                </mxCell>
                <mxCell id="85" value="INDICI" style="shape=partialRectangle;connectable=0;fillColor=none;top=0;left=0;bottom=0;right=0;fontStyle=1;overflow=hidden;rounded=1;align=center;" parent="84" vertex="1">
                    <mxGeometry width="48.46148212139414" height="30" as="geometry">
                        <mxRectangle width="48.46148212139414" height="30" as="alternateBounds"/>
                    </mxGeometry>
                </mxCell>
                <mxCell id="86" value="NOME COLONNA" style="shape=partialRectangle;connectable=0;fillColor=none;top=0;left=0;bottom=0;right=0;align=center;spacingLeft=6;fontStyle=1;overflow=hidden;rounded=1;" parent="84" vertex="1">
                    <mxGeometry x="48.46148212139414" width="120.99688172951741" height="30" as="geometry">
                        <mxRectangle width="120.99688172951741" height="30" as="alternateBounds"/>
                    </mxGeometry>
                </mxCell>
                <mxCell id="87" value="TIPO" style="shape=partialRectangle;connectable=0;fillColor=none;top=0;left=0;bottom=0;right=0;align=center;spacingLeft=6;fontStyle=1;overflow=hidden;rounded=1;" parent="84" vertex="1">
                    <mxGeometry x="169.45836385091155" width="75.7769733503753" height="30" as="geometry">
                        <mxRectangle width="75.7769733503753" height="30" as="alternateBounds"/>
                    </mxGeometry>
                </mxCell>
                <mxCell id="88" value="ATTRIBUTI" style="shape=partialRectangle;connectable=0;fillColor=none;top=0;left=0;bottom=0;right=0;align=center;spacingLeft=6;fontStyle=1;overflow=hidden;rounded=1;" parent="84" vertex="1">
                    <mxGeometry x="245.23533720128685" width="99.76466279871315" height="30" as="geometry">
                        <mxRectangle width="99.76466279871315" height="30" as="alternateBounds"/>
                    </mxGeometry>
                </mxCell>
                <mxCell id="3" value="" style="shape=tableRow;horizontal=0;startSize=0;swimlaneHead=0;swimlaneBody=0;fillColor=none;collapsible=0;dropTarget=0;points=[[0,0.5],[1,0.5]];portConstraint=eastwest;top=0;left=0;right=0;bottom=1;rounded=1;strokeColor=none;strokeWidth=0.5;perimeterSpacing=1;" parent="2" vertex="1">
                    <mxGeometry y="60" width="345" height="34" as="geometry"/>
                </mxCell>
                <mxCell id="4" value="PK" style="shape=partialRectangle;connectable=0;fillColor=none;top=0;left=0;bottom=0;right=0;fontStyle=0;overflow=hidden;rounded=1;align=center;strokeColor=none;strokeWidth=0.5;perimeterSpacing=1;" parent="3" vertex="1">
                    <mxGeometry width="48.46148212139414" height="34" as="geometry">
                        <mxRectangle width="48.46148212139414" height="34" as="alternateBounds"/>
                    </mxGeometry>
                </mxCell>
                <mxCell id="5" value="id_utente" style="shape=partialRectangle;connectable=0;fillColor=none;top=0;left=0;bottom=0;right=0;align=left;spacingLeft=6;fontStyle=0;overflow=hidden;rounded=1;strokeColor=none;strokeWidth=0.5;perimeterSpacing=1;" parent="3" vertex="1">
                    <mxGeometry x="48.46148212139414" width="120.99688172951741" height="34" as="geometry">
                        <mxRectangle width="120.99688172951741" height="34" as="alternateBounds"/>
                    </mxGeometry>
                </mxCell>
                <mxCell id="80" value="INT" style="shape=partialRectangle;connectable=0;fillColor=none;top=0;left=0;bottom=0;right=0;align=center;spacingLeft=6;fontStyle=0;overflow=hidden;rounded=1;strokeColor=none;strokeWidth=0.5;perimeterSpacing=1;fontSize=9;" parent="3" vertex="1">
                    <mxGeometry x="169.45836385091155" width="75.7769733503753" height="34" as="geometry">
                        <mxRectangle width="75.7769733503753" height="34" as="alternateBounds"/>
                    </mxGeometry>
                </mxCell>
                <mxCell id="89" value="AUTO_INCREMENT" style="shape=partialRectangle;connectable=0;fillColor=none;top=0;left=0;bottom=0;right=0;align=left;spacingLeft=6;fontStyle=0;overflow=hidden;rounded=1;strokeColor=none;strokeWidth=0.5;perimeterSpacing=1;fontSize=9;" parent="3" vertex="1">
                    <mxGeometry x="245.23533720128685" width="99.76466279871315" height="34" as="geometry">
                        <mxRectangle width="99.76466279871315" height="34" as="alternateBounds"/>
                    </mxGeometry>
                </mxCell>
                <mxCell id="6" value="" style="shape=tableRow;horizontal=0;startSize=0;swimlaneHead=0;swimlaneBody=0;fillColor=none;collapsible=0;dropTarget=0;points=[[0,0.5],[1,0.5]];portConstraint=eastwest;top=0;left=0;right=0;bottom=0;rounded=1;strokeColor=none;strokeWidth=0.5;perimeterSpacing=1;" parent="2" vertex="1">
                    <mxGeometry y="94" width="345" height="30" as="geometry"/>
                </mxCell>
                <mxCell id="7" value="" style="shape=partialRectangle;connectable=0;fillColor=none;top=0;left=0;bottom=0;right=0;editable=1;overflow=hidden;rounded=1;align=center;strokeColor=none;strokeWidth=0.5;perimeterSpacing=1;" parent="6" vertex="1">
                    <mxGeometry width="48.46148212139414" height="30" as="geometry">
                        <mxRectangle width="48.46148212139414" height="30" as="alternateBounds"/>
                    </mxGeometry>
                </mxCell>
                <mxCell id="8" value="user_name" style="shape=partialRectangle;connectable=0;fillColor=none;top=0;left=0;bottom=0;right=0;align=left;spacingLeft=6;overflow=hidden;rounded=1;strokeColor=none;strokeWidth=0.5;perimeterSpacing=1;" parent="6" vertex="1">
                    <mxGeometry x="48.46148212139414" width="120.99688172951741" height="30" as="geometry">
                        <mxRectangle width="120.99688172951741" height="30" as="alternateBounds"/>
                    </mxGeometry>
                </mxCell>
                <mxCell id="81" value="VARCHAR(16)" style="shape=partialRectangle;connectable=0;fillColor=none;top=0;left=0;bottom=0;right=0;align=center;spacingLeft=6;overflow=hidden;rounded=1;strokeColor=none;strokeWidth=0.5;perimeterSpacing=1;fontSize=9;" parent="6" vertex="1">
                    <mxGeometry x="169.45836385091155" width="75.7769733503753" height="30" as="geometry">
                        <mxRectangle width="75.7769733503753" height="30" as="alternateBounds"/>
                    </mxGeometry>
                </mxCell>
                <mxCell id="90" value="UNIQUE, NOT NULL" style="shape=partialRectangle;connectable=0;fillColor=none;top=0;left=0;bottom=0;right=0;align=left;spacingLeft=6;overflow=hidden;rounded=1;strokeColor=none;strokeWidth=0.5;perimeterSpacing=1;fontSize=9;" parent="6" vertex="1">
                    <mxGeometry x="245.23533720128685" width="99.76466279871315" height="30" as="geometry">
                        <mxRectangle width="99.76466279871315" height="30" as="alternateBounds"/>
                    </mxGeometry>
                </mxCell>
                <mxCell id="9" value="" style="shape=tableRow;horizontal=0;startSize=0;swimlaneHead=0;swimlaneBody=0;fillColor=none;collapsible=0;dropTarget=0;points=[[0,0.5],[1,0.5]];portConstraint=eastwest;top=0;left=0;right=0;bottom=0;rounded=1;strokeColor=none;strokeWidth=0.5;perimeterSpacing=1;" parent="2" vertex="1">
                    <mxGeometry y="124" width="345" height="30" as="geometry"/>
                </mxCell>
                <mxCell id="10" value="" style="shape=partialRectangle;connectable=0;fillColor=none;top=0;left=0;bottom=0;right=0;editable=1;overflow=hidden;rounded=1;align=center;strokeColor=none;strokeWidth=0.5;perimeterSpacing=1;" parent="9" vertex="1">
                    <mxGeometry width="48.46148212139414" height="30" as="geometry">
                        <mxRectangle width="48.46148212139414" height="30" as="alternateBounds"/>
                    </mxGeometry>
                </mxCell>
                <mxCell id="11" value="nome" style="shape=partialRectangle;connectable=0;fillColor=none;top=0;left=0;bottom=0;right=0;align=left;spacingLeft=6;overflow=hidden;rounded=1;strokeColor=none;strokeWidth=0.5;perimeterSpacing=1;" parent="9" vertex="1">
                    <mxGeometry x="48.46148212139414" width="120.99688172951741" height="30" as="geometry">
                        <mxRectangle width="120.99688172951741" height="30" as="alternateBounds"/>
                    </mxGeometry>
                </mxCell>
                <mxCell id="82" value="VARCHAR(63)" style="shape=partialRectangle;connectable=0;fillColor=none;top=0;left=0;bottom=0;right=0;align=center;spacingLeft=6;overflow=hidden;rounded=1;strokeColor=none;strokeWidth=8;perimeterSpacing=1;fontSize=9;" parent="9" vertex="1">
                    <mxGeometry x="169.45836385091155" width="75.7769733503753" height="30" as="geometry">
                        <mxRectangle width="75.7769733503753" height="30" as="alternateBounds"/>
                    </mxGeometry>
                </mxCell>
                <mxCell id="91" value="NOT NULL" style="shape=partialRectangle;connectable=0;fillColor=none;top=0;left=0;bottom=0;right=0;align=left;spacingLeft=6;overflow=hidden;rounded=1;strokeColor=none;strokeWidth=0.5;perimeterSpacing=1;fontSize=9;" parent="9" vertex="1">
                    <mxGeometry x="245.23533720128685" width="99.76466279871315" height="30" as="geometry">
                        <mxRectangle width="99.76466279871315" height="30" as="alternateBounds"/>
                    </mxGeometry>
                </mxCell>
                <mxCell id="12" value="" style="shape=tableRow;horizontal=0;startSize=0;swimlaneHead=0;swimlaneBody=0;fillColor=none;collapsible=0;dropTarget=0;points=[[0,0.5],[1,0.5]];portConstraint=eastwest;top=0;left=0;right=0;bottom=0;rounded=1;strokeColor=none;strokeWidth=0.5;perimeterSpacing=1;" parent="2" vertex="1">
                    <mxGeometry y="154" width="345" height="30" as="geometry"/>
                </mxCell>
                <mxCell id="13" value="" style="shape=partialRectangle;connectable=0;fillColor=none;top=0;left=0;bottom=0;right=0;editable=1;overflow=hidden;rounded=1;align=center;strokeColor=none;strokeWidth=0.5;perimeterSpacing=1;" parent="12" vertex="1">
                    <mxGeometry width="48.46148212139414" height="30" as="geometry">
                        <mxRectangle width="48.46148212139414" height="30" as="alternateBounds"/>
                    </mxGeometry>
                </mxCell>
                <mxCell id="14" value="cognome" style="shape=partialRectangle;connectable=0;fillColor=none;top=0;left=0;bottom=0;right=0;align=left;spacingLeft=6;overflow=hidden;rounded=1;strokeColor=none;strokeWidth=0.5;perimeterSpacing=1;" parent="12" vertex="1">
                    <mxGeometry x="48.46148212139414" width="120.99688172951741" height="30" as="geometry">
                        <mxRectangle width="120.99688172951741" height="30" as="alternateBounds"/>
                    </mxGeometry>
                </mxCell>
                <mxCell id="83" value="VARCHAR(40)" style="shape=partialRectangle;connectable=0;fillColor=none;top=0;left=0;bottom=0;right=0;align=center;spacingLeft=6;overflow=hidden;rounded=1;strokeColor=none;strokeWidth=0.5;perimeterSpacing=1;fontSize=9;" parent="12" vertex="1">
                    <mxGeometry x="169.45836385091155" width="75.7769733503753" height="30" as="geometry">
                        <mxRectangle width="75.7769733503753" height="30" as="alternateBounds"/>
                    </mxGeometry>
                </mxCell>
                <mxCell id="92" value="NOT NULL" style="shape=partialRectangle;connectable=0;fillColor=none;top=0;left=0;bottom=0;right=0;align=left;spacingLeft=6;overflow=hidden;rounded=1;strokeColor=none;strokeWidth=0.5;perimeterSpacing=1;fontSize=9;" parent="12" vertex="1">
                    <mxGeometry x="245.23533720128685" width="99.76466279871315" height="30" as="geometry">
                        <mxRectangle width="99.76466279871315" height="30" as="alternateBounds"/>
                    </mxGeometry>
                </mxCell>
                <mxCell id="93" value="" style="shape=tableRow;horizontal=0;startSize=0;swimlaneHead=0;swimlaneBody=0;fillColor=none;collapsible=0;dropTarget=0;points=[[0,0.5],[1,0.5]];portConstraint=eastwest;top=0;left=0;right=0;bottom=0;rounded=1;strokeColor=none;strokeWidth=0.5;perimeterSpacing=1;" parent="2" vertex="1">
                    <mxGeometry y="184" width="345" height="30" as="geometry"/>
                </mxCell>
                <mxCell id="94" value="" style="shape=partialRectangle;connectable=0;fillColor=none;top=0;left=0;bottom=0;right=0;editable=1;overflow=hidden;rounded=1;align=center;strokeColor=none;strokeWidth=0.5;perimeterSpacing=1;" parent="93" vertex="1">
                    <mxGeometry width="48.46148212139414" height="30" as="geometry">
                        <mxRectangle width="48.46148212139414" height="30" as="alternateBounds"/>
                    </mxGeometry>
                </mxCell>
                <mxCell id="95" value="email" style="shape=partialRectangle;connectable=0;fillColor=none;top=0;left=0;bottom=0;right=0;align=left;spacingLeft=6;overflow=hidden;rounded=1;strokeColor=none;strokeWidth=0.5;perimeterSpacing=1;" parent="93" vertex="1">
                    <mxGeometry x="48.46148212139414" width="120.99688172951741" height="30" as="geometry">
                        <mxRectangle width="120.99688172951741" height="30" as="alternateBounds"/>
                    </mxGeometry>
                </mxCell>
                <mxCell id="96" value="VARCHAR(255)" style="shape=partialRectangle;connectable=0;fillColor=none;top=0;left=0;bottom=0;right=0;align=center;spacingLeft=6;overflow=hidden;rounded=1;strokeColor=none;strokeWidth=0.5;perimeterSpacing=1;fontSize=9;" parent="93" vertex="1">
                    <mxGeometry x="169.45836385091155" width="75.7769733503753" height="30" as="geometry">
                        <mxRectangle width="75.7769733503753" height="30" as="alternateBounds"/>
                    </mxGeometry>
                </mxCell>
                <mxCell id="97" value="NOT NULL" style="shape=partialRectangle;connectable=0;fillColor=none;top=0;left=0;bottom=0;right=0;align=left;spacingLeft=6;overflow=hidden;rounded=1;strokeColor=none;strokeWidth=0.5;perimeterSpacing=1;fontSize=9;" parent="93" vertex="1">
                    <mxGeometry x="245.23533720128685" width="99.76466279871315" height="30" as="geometry">
                        <mxRectangle width="99.76466279871315" height="30" as="alternateBounds"/>
                    </mxGeometry>
                </mxCell>
                <mxCell id="98" value="" style="shape=tableRow;horizontal=0;startSize=0;swimlaneHead=0;swimlaneBody=0;fillColor=none;collapsible=0;dropTarget=0;points=[[0,0.5],[1,0.5]];portConstraint=eastwest;top=0;left=0;right=0;bottom=0;rounded=1;strokeColor=none;strokeWidth=0.5;perimeterSpacing=1;" parent="2" vertex="1">
                    <mxGeometry y="214" width="345" height="30" as="geometry"/>
                </mxCell>
                <mxCell id="99" value="" style="shape=partialRectangle;connectable=0;fillColor=none;top=0;left=0;bottom=0;right=0;editable=1;overflow=hidden;rounded=1;align=center;strokeColor=none;strokeWidth=0.5;perimeterSpacing=1;" parent="98" vertex="1">
                    <mxGeometry width="48.46148212139414" height="30" as="geometry">
                        <mxRectangle width="48.46148212139414" height="30" as="alternateBounds"/>
                    </mxGeometry>
                </mxCell>
                <mxCell id="100" value="phone_number" style="shape=partialRectangle;connectable=0;fillColor=none;top=0;left=0;bottom=0;right=0;align=left;spacingLeft=6;overflow=hidden;rounded=1;strokeColor=none;strokeWidth=0.5;perimeterSpacing=1;" parent="98" vertex="1">
                    <mxGeometry x="48.46148212139414" width="120.99688172951741" height="30" as="geometry">
                        <mxRectangle width="120.99688172951741" height="30" as="alternateBounds"/>
                    </mxGeometry>
                </mxCell>
                <mxCell id="101" value="INT" style="shape=partialRectangle;connectable=0;fillColor=none;top=0;left=0;bottom=0;right=0;align=center;spacingLeft=6;overflow=hidden;rounded=1;strokeColor=none;strokeWidth=0.5;perimeterSpacing=1;fontSize=9;" parent="98" vertex="1">
                    <mxGeometry x="169.45836385091155" width="75.7769733503753" height="30" as="geometry">
                        <mxRectangle width="75.7769733503753" height="30" as="alternateBounds"/>
                    </mxGeometry>
                </mxCell>
                <mxCell id="102" value="NULL" style="shape=partialRectangle;connectable=0;fillColor=none;top=0;left=0;bottom=0;right=0;align=left;spacingLeft=6;overflow=hidden;rounded=1;strokeColor=none;strokeWidth=0.5;perimeterSpacing=1;fontSize=9;" parent="98" vertex="1">
                    <mxGeometry x="245.23533720128685" width="99.76466279871315" height="30" as="geometry">
                        <mxRectangle width="99.76466279871315" height="30" as="alternateBounds"/>
                    </mxGeometry>
                </mxCell>
                <mxCell id="139" value="" style="shape=tableRow;horizontal=0;startSize=0;swimlaneHead=0;swimlaneBody=0;fillColor=none;collapsible=0;dropTarget=0;points=[[0,0.5],[1,0.5]];portConstraint=eastwest;top=0;left=0;right=0;bottom=0;rounded=1;strokeColor=none;strokeWidth=0.5;perimeterSpacing=1;" parent="2" vertex="1">
                    <mxGeometry y="244" width="345" height="30" as="geometry"/>
                </mxCell>
                <mxCell id="140" value="" style="shape=partialRectangle;connectable=0;fillColor=none;top=0;left=0;bottom=0;right=0;editable=1;overflow=hidden;rounded=1;align=center;strokeColor=none;strokeWidth=0.5;perimeterSpacing=1;" parent="139" vertex="1">
                    <mxGeometry width="48.46148212139414" height="30" as="geometry">
                        <mxRectangle width="48.46148212139414" height="30" as="alternateBounds"/>
                    </mxGeometry>
                </mxCell>
                <mxCell id="141" value="password" style="shape=partialRectangle;connectable=0;fillColor=none;top=0;left=0;bottom=0;right=0;align=left;spacingLeft=6;overflow=hidden;rounded=1;strokeColor=none;strokeWidth=0.5;perimeterSpacing=1;" parent="139" vertex="1">
                    <mxGeometry x="48.46148212139414" width="120.99688172951741" height="30" as="geometry">
                        <mxRectangle width="120.99688172951741" height="30" as="alternateBounds"/>
                    </mxGeometry>
                </mxCell>
                <mxCell id="142" value="VARCHAR(20)" style="shape=partialRectangle;connectable=0;fillColor=none;top=0;left=0;bottom=0;right=0;align=center;spacingLeft=6;overflow=hidden;rounded=1;strokeColor=none;strokeWidth=0.5;perimeterSpacing=1;fontSize=9;" parent="139" vertex="1">
                    <mxGeometry x="169.45836385091155" width="75.7769733503753" height="30" as="geometry">
                        <mxRectangle width="75.7769733503753" height="30" as="alternateBounds"/>
                    </mxGeometry>
                </mxCell>
                <mxCell id="143" value="NOT NULL" style="shape=partialRectangle;connectable=0;fillColor=none;top=0;left=0;bottom=0;right=0;align=left;spacingLeft=6;overflow=hidden;rounded=1;strokeColor=none;strokeWidth=0.5;perimeterSpacing=1;fontSize=9;" parent="139" vertex="1">
                    <mxGeometry x="245.23533720128685" width="99.76466279871315" height="30" as="geometry">
                        <mxRectangle width="99.76466279871315" height="30" as="alternateBounds"/>
                    </mxGeometry>
                </mxCell>
                <mxCell id="144" value="" style="shape=tableRow;horizontal=0;startSize=0;swimlaneHead=0;swimlaneBody=0;fillColor=none;collapsible=0;dropTarget=0;points=[[0,0.5],[1,0.5]];portConstraint=eastwest;top=0;left=0;right=0;bottom=0;rounded=1;strokeColor=none;strokeWidth=0.5;perimeterSpacing=1;" parent="2" vertex="1">
                    <mxGeometry y="274" width="345" height="30" as="geometry"/>
                </mxCell>
                <mxCell id="145" value="" style="shape=partialRectangle;connectable=0;fillColor=none;top=0;left=0;bottom=0;right=0;editable=1;overflow=hidden;rounded=1;align=center;strokeColor=none;strokeWidth=0.5;perimeterSpacing=1;" parent="144" vertex="1">
                    <mxGeometry width="48.46148212139414" height="30" as="geometry">
                        <mxRectangle width="48.46148212139414" height="30" as="alternateBounds"/>
                    </mxGeometry>
                </mxCell>
                <mxCell id="146" value="data_di_nascita" style="shape=partialRectangle;connectable=0;fillColor=none;top=0;left=0;bottom=0;right=0;align=left;spacingLeft=6;overflow=hidden;rounded=1;strokeColor=none;strokeWidth=0.5;perimeterSpacing=1;" parent="144" vertex="1">
                    <mxGeometry x="48.46148212139414" width="120.99688172951741" height="30" as="geometry">
                        <mxRectangle width="120.99688172951741" height="30" as="alternateBounds"/>
                    </mxGeometry>
                </mxCell>
                <mxCell id="147" value="DATE" style="shape=partialRectangle;connectable=0;fillColor=none;top=0;left=0;bottom=0;right=0;align=center;spacingLeft=6;overflow=hidden;rounded=1;strokeColor=none;strokeWidth=0.5;perimeterSpacing=1;fontSize=9;" parent="144" vertex="1">
                    <mxGeometry x="169.45836385091155" width="75.7769733503753" height="30" as="geometry">
                        <mxRectangle width="75.7769733503753" height="30" as="alternateBounds"/>
                    </mxGeometry>
                </mxCell>
                <mxCell id="148" value="NOT NULL" style="shape=partialRectangle;connectable=0;fillColor=none;top=0;left=0;bottom=0;right=0;align=left;spacingLeft=6;overflow=hidden;rounded=1;strokeColor=none;strokeWidth=0.5;perimeterSpacing=1;fontSize=9;" parent="144" vertex="1">
                    <mxGeometry x="245.23533720128685" width="99.76466279871315" height="30" as="geometry">
                        <mxRectangle width="99.76466279871315" height="30" as="alternateBounds"/>
                    </mxGeometry>
                </mxCell>
                <mxCell id="149" value="" style="shape=tableRow;horizontal=0;startSize=0;swimlaneHead=0;swimlaneBody=0;fillColor=none;collapsible=0;dropTarget=0;points=[[0,0.5],[1,0.5]];portConstraint=eastwest;top=0;left=0;right=0;bottom=0;rounded=1;strokeColor=none;strokeWidth=0.5;perimeterSpacing=1;" parent="2" vertex="1">
                    <mxGeometry y="304" width="345" height="30" as="geometry"/>
                </mxCell>
                <mxCell id="150" value="" style="shape=partialRectangle;connectable=0;fillColor=none;top=0;left=0;bottom=0;right=0;editable=1;overflow=hidden;rounded=1;align=center;strokeColor=none;strokeWidth=0.5;perimeterSpacing=1;" parent="149" vertex="1">
                    <mxGeometry width="48.46148212139414" height="30" as="geometry">
                        <mxRectangle width="48.46148212139414" height="30" as="alternateBounds"/>
                    </mxGeometry>
                </mxCell>
                <mxCell id="151" value="residenza" style="shape=partialRectangle;connectable=0;fillColor=none;top=0;left=0;bottom=0;right=0;align=left;spacingLeft=6;overflow=hidden;rounded=1;strokeColor=none;strokeWidth=0.5;perimeterSpacing=1;" parent="149" vertex="1">
                    <mxGeometry x="48.46148212139414" width="120.99688172951741" height="30" as="geometry">
                        <mxRectangle width="120.99688172951741" height="30" as="alternateBounds"/>
                    </mxGeometry>
                </mxCell>
                <mxCell id="152" value="VARCHAR(255)" style="shape=partialRectangle;connectable=0;fillColor=none;top=0;left=0;bottom=0;right=0;align=center;spacingLeft=6;overflow=hidden;rounded=1;strokeColor=none;strokeWidth=0.5;perimeterSpacing=1;fontSize=9;" parent="149" vertex="1">
                    <mxGeometry x="169.45836385091155" width="75.7769733503753" height="30" as="geometry">
                        <mxRectangle width="75.7769733503753" height="30" as="alternateBounds"/>
                    </mxGeometry>
                </mxCell>
                <mxCell id="153" value="NULL" style="shape=partialRectangle;connectable=0;fillColor=none;top=0;left=0;bottom=0;right=0;align=left;spacingLeft=6;overflow=hidden;rounded=1;strokeColor=none;strokeWidth=0.5;perimeterSpacing=1;fontSize=9;" parent="149" vertex="1">
                    <mxGeometry x="245.23533720128685" width="99.76466279871315" height="30" as="geometry">
                        <mxRectangle width="99.76466279871315" height="30" as="alternateBounds"/>
                    </mxGeometry>
                </mxCell>
                <mxCell id="15" value="Posts" style="shape=table;startSize=30;container=1;collapsible=1;childLayout=tableLayout;fixedRows=1;rowLines=0;fontStyle=1;align=center;resizeLast=1;fillColor=#dae8fc;strokeColor=#6c8ebf;rounded=1;" parent="1" vertex="1">
                    <mxGeometry x="379" y="-192" width="409" height="210" as="geometry"/>
                </mxCell>
                <mxCell id="16" value="" style="shape=tableRow;horizontal=0;startSize=0;swimlaneHead=0;swimlaneBody=0;fillColor=none;collapsible=0;dropTarget=0;points=[[0,0.5],[1,0.5]];portConstraint=eastwest;top=0;left=0;right=0;bottom=1;rounded=1;" parent="15" vertex="1">
                    <mxGeometry y="30" width="409" height="30" as="geometry"/>
                </mxCell>
                <mxCell id="17" value="INDICI" style="shape=partialRectangle;connectable=0;fillColor=none;top=0;left=0;bottom=0;right=0;fontStyle=1;overflow=hidden;rounded=1;align=center;" parent="16" vertex="1">
                    <mxGeometry width="51.294074563419315" height="30" as="geometry">
                        <mxRectangle width="51.294074563419315" height="30" as="alternateBounds"/>
                    </mxGeometry>
                </mxCell>
                <mxCell id="18" value="NOME COLONNA" style="shape=partialRectangle;connectable=0;fillColor=none;top=0;left=0;bottom=0;right=0;align=center;spacingLeft=6;fontStyle=1;overflow=hidden;rounded=1;" parent="16" vertex="1">
                    <mxGeometry x="51.294074563419315" width="169.70592543658069" height="30" as="geometry">
                        <mxRectangle width="169.70592543658069" height="30" as="alternateBounds"/>
                    </mxGeometry>
                </mxCell>
                <mxCell id="155" value="TIPO" style="shape=partialRectangle;connectable=0;fillColor=none;top=0;left=0;bottom=0;right=0;align=center;spacingLeft=6;fontStyle=1;overflow=hidden;rounded=1;" parent="16" vertex="1">
                    <mxGeometry x="221" width="77.40007324218755" height="30" as="geometry">
                        <mxRectangle width="77.40007324218755" height="30" as="alternateBounds"/>
                    </mxGeometry>
                </mxCell>
                <mxCell id="159" value="ATTRIBUTI" style="shape=partialRectangle;connectable=0;fillColor=none;top=0;left=0;bottom=0;right=0;align=center;spacingLeft=6;fontStyle=1;overflow=hidden;rounded=1;" parent="16" vertex="1">
                    <mxGeometry x="298.40007324218755" width="110.59992675781245" height="30" as="geometry">
                        <mxRectangle width="110.59992675781245" height="30" as="alternateBounds"/>
                    </mxGeometry>
                </mxCell>
                <mxCell id="19" value="" style="shape=tableRow;horizontal=0;startSize=0;swimlaneHead=0;swimlaneBody=0;fillColor=none;collapsible=0;dropTarget=0;points=[[0,0.5],[1,0.5]];portConstraint=eastwest;top=0;left=0;right=0;bottom=0;rounded=1;" parent="15" vertex="1">
                    <mxGeometry y="60" width="409" height="30" as="geometry"/>
                </mxCell>
                <mxCell id="20" value="PK" style="shape=partialRectangle;connectable=0;fillColor=none;top=0;left=0;bottom=0;right=0;editable=1;overflow=hidden;rounded=1;" parent="19" vertex="1">
                    <mxGeometry width="51.294074563419315" height="30" as="geometry">
                        <mxRectangle width="51.294074563419315" height="30" as="alternateBounds"/>
                    </mxGeometry>
                </mxCell>
                <mxCell id="21" value="id_post" style="shape=partialRectangle;connectable=0;fillColor=none;top=0;left=0;bottom=0;right=0;align=left;spacingLeft=6;overflow=hidden;rounded=1;strokeColor=#C87471;" parent="19" vertex="1">
                    <mxGeometry x="51.294074563419315" width="169.70592543658069" height="30" as="geometry">
                        <mxRectangle width="169.70592543658069" height="30" as="alternateBounds"/>
                    </mxGeometry>
                </mxCell>
                <mxCell id="156" value="INT" style="shape=partialRectangle;connectable=0;fillColor=none;top=0;left=0;bottom=0;right=0;align=center;spacingLeft=6;overflow=hidden;rounded=1;strokeColor=#C87471;fontSize=9;" parent="19" vertex="1">
                    <mxGeometry x="221" width="77.40007324218755" height="30" as="geometry">
                        <mxRectangle width="77.40007324218755" height="30" as="alternateBounds"/>
                    </mxGeometry>
                </mxCell>
                <mxCell id="160" value="AUTO_INCREMENT" style="shape=partialRectangle;connectable=0;fillColor=none;top=0;left=0;bottom=0;right=0;align=center;spacingLeft=6;overflow=hidden;rounded=1;strokeColor=#C87471;fontSize=9;" parent="19" vertex="1">
                    <mxGeometry x="298.40007324218755" width="110.59992675781245" height="30" as="geometry">
                        <mxRectangle width="110.59992675781245" height="30" as="alternateBounds"/>
                    </mxGeometry>
                </mxCell>
                <mxCell id="22" value="" style="shape=tableRow;horizontal=0;startSize=0;swimlaneHead=0;swimlaneBody=0;fillColor=none;collapsible=0;dropTarget=0;points=[[0,0.5],[1,0.5]];portConstraint=eastwest;top=0;left=0;right=0;bottom=0;rounded=1;" parent="15" vertex="1">
                    <mxGeometry y="90" width="409" height="30" as="geometry"/>
                </mxCell>
                <mxCell id="23" value="FK" style="shape=partialRectangle;connectable=0;fillColor=none;top=0;left=0;bottom=0;right=0;editable=1;overflow=hidden;rounded=1;" parent="22" vertex="1">
                    <mxGeometry width="51.294074563419315" height="30" as="geometry">
                        <mxRectangle width="51.294074563419315" height="30" as="alternateBounds"/>
                    </mxGeometry>
                </mxCell>
                <mxCell id="24" value="id_utente" style="shape=partialRectangle;connectable=0;fillColor=none;top=0;left=0;bottom=0;right=0;align=left;spacingLeft=6;overflow=hidden;rounded=1;" parent="22" vertex="1">
                    <mxGeometry x="51.294074563419315" width="169.70592543658069" height="30" as="geometry">
                        <mxRectangle width="169.70592543658069" height="30" as="alternateBounds"/>
                    </mxGeometry>
                </mxCell>
                <mxCell id="157" value="\\" style="shape=partialRectangle;connectable=0;fillColor=none;top=0;left=0;bottom=0;right=0;align=center;spacingLeft=6;overflow=hidden;rounded=1;fontSize=9;" parent="22" vertex="1">
                    <mxGeometry x="221" width="77.40007324218755" height="30" as="geometry">
                        <mxRectangle width="77.40007324218755" height="30" as="alternateBounds"/>
                    </mxGeometry>
                </mxCell>
                <mxCell id="161" value="\\" style="shape=partialRectangle;connectable=0;fillColor=none;top=0;left=0;bottom=0;right=0;align=center;spacingLeft=6;overflow=hidden;rounded=1;fontSize=9;" parent="22" vertex="1">
                    <mxGeometry x="298.40007324218755" width="110.59992675781245" height="30" as="geometry">
                        <mxRectangle width="110.59992675781245" height="30" as="alternateBounds"/>
                    </mxGeometry>
                </mxCell>
                <mxCell id="25" value="" style="shape=tableRow;horizontal=0;startSize=0;swimlaneHead=0;swimlaneBody=0;fillColor=none;collapsible=0;dropTarget=0;points=[[0,0.5],[1,0.5]];portConstraint=eastwest;top=0;left=0;right=0;bottom=0;rounded=1;" parent="15" vertex="1">
                    <mxGeometry y="120" width="409" height="30" as="geometry"/>
                </mxCell>
                <mxCell id="26" value="" style="shape=partialRectangle;connectable=0;fillColor=none;top=0;left=0;bottom=0;right=0;editable=1;overflow=hidden;rounded=1;" parent="25" vertex="1">
                    <mxGeometry width="51.294074563419315" height="30" as="geometry">
                        <mxRectangle width="51.294074563419315" height="30" as="alternateBounds"/>
                    </mxGeometry>
                </mxCell>
                <mxCell id="27" value="titolo" style="shape=partialRectangle;connectable=0;fillColor=none;top=0;left=0;bottom=0;right=0;align=left;spacingLeft=6;overflow=hidden;rounded=1;" parent="25" vertex="1">
                    <mxGeometry x="51.294074563419315" width="169.70592543658069" height="30" as="geometry">
                        <mxRectangle width="169.70592543658069" height="30" as="alternateBounds"/>
                    </mxGeometry>
                </mxCell>
                <mxCell id="158" value="VARCHAR(255)" style="shape=partialRectangle;connectable=0;fillColor=none;top=0;left=0;bottom=0;right=0;align=center;spacingLeft=6;overflow=hidden;rounded=1;fontSize=9;" parent="25" vertex="1">
                    <mxGeometry x="221" width="77.40007324218755" height="30" as="geometry">
                        <mxRectangle width="77.40007324218755" height="30" as="alternateBounds"/>
                    </mxGeometry>
                </mxCell>
                <mxCell id="162" value="NOT NULL" style="shape=partialRectangle;connectable=0;fillColor=none;top=0;left=0;bottom=0;right=0;align=center;spacingLeft=6;overflow=hidden;rounded=1;fontSize=9;" parent="25" vertex="1">
                    <mxGeometry x="298.40007324218755" width="110.59992675781245" height="30" as="geometry">
                        <mxRectangle width="110.59992675781245" height="30" as="alternateBounds"/>
                    </mxGeometry>
                </mxCell>
                <mxCell id="163" value="" style="shape=tableRow;horizontal=0;startSize=0;swimlaneHead=0;swimlaneBody=0;fillColor=none;collapsible=0;dropTarget=0;points=[[0,0.5],[1,0.5]];portConstraint=eastwest;top=0;left=0;right=0;bottom=0;rounded=1;" parent="15" vertex="1">
                    <mxGeometry y="150" width="409" height="30" as="geometry"/>
                </mxCell>
                <mxCell id="164" value="" style="shape=partialRectangle;connectable=0;fillColor=none;top=0;left=0;bottom=0;right=0;editable=1;overflow=hidden;rounded=1;" parent="163" vertex="1">
                    <mxGeometry width="51.294074563419315" height="30" as="geometry">
                        <mxRectangle width="51.294074563419315" height="30" as="alternateBounds"/>
                    </mxGeometry>
                </mxCell>
                <mxCell id="165" value="descrizione" style="shape=partialRectangle;connectable=0;fillColor=none;top=0;left=0;bottom=0;right=0;align=left;spacingLeft=6;overflow=hidden;rounded=1;" parent="163" vertex="1">
                    <mxGeometry x="51.294074563419315" width="169.70592543658069" height="30" as="geometry">
                        <mxRectangle width="169.70592543658069" height="30" as="alternateBounds"/>
                    </mxGeometry>
                </mxCell>
                <mxCell id="166" value="TEXT" style="shape=partialRectangle;connectable=0;fillColor=none;top=0;left=0;bottom=0;right=0;align=center;spacingLeft=6;overflow=hidden;rounded=1;fontSize=9;" parent="163" vertex="1">
                    <mxGeometry x="221" width="77.40007324218755" height="30" as="geometry">
                        <mxRectangle width="77.40007324218755" height="30" as="alternateBounds"/>
                    </mxGeometry>
                </mxCell>
                <mxCell id="167" value="NULL" style="shape=partialRectangle;connectable=0;fillColor=none;top=0;left=0;bottom=0;right=0;align=center;spacingLeft=6;overflow=hidden;rounded=1;fontSize=9;" parent="163" vertex="1">
                    <mxGeometry x="298.40007324218755" width="110.59992675781245" height="30" as="geometry">
                        <mxRectangle width="110.59992675781245" height="30" as="alternateBounds"/>
                    </mxGeometry>
                </mxCell>
                <mxCell id="168" value="" style="shape=tableRow;horizontal=0;startSize=0;swimlaneHead=0;swimlaneBody=0;fillColor=none;collapsible=0;dropTarget=0;points=[[0,0.5],[1,0.5]];portConstraint=eastwest;top=0;left=0;right=0;bottom=0;rounded=1;" parent="15" vertex="1">
                    <mxGeometry y="180" width="409" height="30" as="geometry"/>
                </mxCell>
                <mxCell id="169" value="" style="shape=partialRectangle;connectable=0;fillColor=none;top=0;left=0;bottom=0;right=0;editable=1;overflow=hidden;rounded=1;" parent="168" vertex="1">
                    <mxGeometry width="51.294074563419315" height="30" as="geometry">
                        <mxRectangle width="51.294074563419315" height="30" as="alternateBounds"/>
                    </mxGeometry>
                </mxCell>
                <mxCell id="170" value="data_ora" style="shape=partialRectangle;connectable=0;fillColor=none;top=0;left=0;bottom=0;right=0;align=left;spacingLeft=6;overflow=hidden;rounded=1;" parent="168" vertex="1">
                    <mxGeometry x="51.294074563419315" width="169.70592543658069" height="30" as="geometry">
                        <mxRectangle width="169.70592543658069" height="30" as="alternateBounds"/>
                    </mxGeometry>
                </mxCell>
                <mxCell id="171" value="DATETIME" style="shape=partialRectangle;connectable=0;fillColor=none;top=0;left=0;bottom=0;right=0;align=center;spacingLeft=6;overflow=hidden;rounded=1;fontSize=9;" parent="168" vertex="1">
                    <mxGeometry x="221" width="77.40007324218755" height="30" as="geometry">
                        <mxRectangle width="77.40007324218755" height="30" as="alternateBounds"/>
                    </mxGeometry>
                </mxCell>
                <mxCell id="172" value="NOT NULL" style="shape=partialRectangle;connectable=0;fillColor=none;top=0;left=0;bottom=0;right=0;align=center;spacingLeft=6;overflow=hidden;rounded=1;fontSize=9;" parent="168" vertex="1">
                    <mxGeometry x="298.40007324218755" width="110.59992675781245" height="30" as="geometry">
                        <mxRectangle width="110.59992675781245" height="30" as="alternateBounds"/>
                    </mxGeometry>
                </mxCell>
                <mxCell id="28" value="Media" style="shape=table;startSize=30;container=1;collapsible=1;childLayout=tableLayout;fixedRows=1;rowLines=0;fontStyle=1;align=center;resizeLast=1;fillColor=#fff2cc;strokeColor=#d6b656;rounded=1;" parent="1" vertex="1">
                    <mxGeometry x="447" y="52" width="357" height="210" as="geometry"/>
                </mxCell>
                <mxCell id="29" value="" style="shape=tableRow;horizontal=0;startSize=0;swimlaneHead=0;swimlaneBody=0;fillColor=none;collapsible=0;dropTarget=0;points=[[0,0.5],[1,0.5]];portConstraint=eastwest;top=0;left=0;right=0;bottom=1;rounded=1;" parent="28" vertex="1">
                    <mxGeometry y="30" width="357" height="30" as="geometry"/>
                </mxCell>
                <mxCell id="30" value="INDICI" style="shape=partialRectangle;connectable=0;fillColor=none;top=0;left=0;bottom=0;right=0;fontStyle=1;overflow=hidden;rounded=1;" parent="29" vertex="1">
                    <mxGeometry width="48.92300180288464" height="30" as="geometry">
                        <mxRectangle width="48.92300180288464" height="30" as="alternateBounds"/>
                    </mxGeometry>
                </mxCell>
                <mxCell id="31" value="NOME COLONNA" style="shape=partialRectangle;connectable=0;fillColor=none;top=0;left=0;bottom=0;right=0;align=center;spacingLeft=6;fontStyle=1;overflow=hidden;rounded=1;" parent="29" vertex="1">
                    <mxGeometry x="48.92300180288464" width="125.07699819711536" height="30" as="geometry">
                        <mxRectangle width="125.07699819711536" height="30" as="alternateBounds"/>
                    </mxGeometry>
                </mxCell>
                <mxCell id="242" value="TIPO" style="shape=partialRectangle;connectable=0;fillColor=none;top=0;left=0;bottom=0;right=0;align=center;spacingLeft=6;fontStyle=1;overflow=hidden;rounded=1;" parent="29" vertex="1">
                    <mxGeometry x="174" width="61.40910200639178" height="30" as="geometry">
                        <mxRectangle width="61.40910200639178" height="30" as="alternateBounds"/>
                    </mxGeometry>
                </mxCell>
                <mxCell id="248" value="ATTRIBUTO" style="shape=partialRectangle;connectable=0;fillColor=none;top=0;left=0;bottom=0;right=0;align=center;spacingLeft=6;fontStyle=1;overflow=hidden;rounded=1;" parent="29" vertex="1">
                    <mxGeometry x="235.40910200639178" width="121.59089799360822" height="30" as="geometry">
                        <mxRectangle width="121.59089799360822" height="30" as="alternateBounds"/>
                    </mxGeometry>
                </mxCell>
                <mxCell id="32" value="" style="shape=tableRow;horizontal=0;startSize=0;swimlaneHead=0;swimlaneBody=0;fillColor=none;collapsible=0;dropTarget=0;points=[[0,0.5],[1,0.5]];portConstraint=eastwest;top=0;left=0;right=0;bottom=0;rounded=1;" parent="28" vertex="1">
                    <mxGeometry y="60" width="357" height="30" as="geometry"/>
                </mxCell>
                <mxCell id="33" value="PK" style="shape=partialRectangle;connectable=0;fillColor=none;top=0;left=0;bottom=0;right=0;editable=1;overflow=hidden;rounded=1;" parent="32" vertex="1">
                    <mxGeometry width="48.92300180288464" height="30" as="geometry">
                        <mxRectangle width="48.92300180288464" height="30" as="alternateBounds"/>
                    </mxGeometry>
                </mxCell>
                <mxCell id="34" value="id_media" style="shape=partialRectangle;connectable=0;fillColor=none;top=0;left=0;bottom=0;right=0;align=left;spacingLeft=6;overflow=hidden;rounded=1;strokeColor=#C87471;" parent="32" vertex="1">
                    <mxGeometry x="48.92300180288464" width="125.07699819711536" height="30" as="geometry">
                        <mxRectangle width="125.07699819711536" height="30" as="alternateBounds"/>
                    </mxGeometry>
                </mxCell>
                <mxCell id="243" value="INT" style="shape=partialRectangle;connectable=0;fillColor=none;top=0;left=0;bottom=0;right=0;align=center;spacingLeft=6;overflow=hidden;rounded=1;strokeColor=#C87471;fontSize=9;" parent="32" vertex="1">
                    <mxGeometry x="174" width="61.40910200639178" height="30" as="geometry">
                        <mxRectangle width="61.40910200639178" height="30" as="alternateBounds"/>
                    </mxGeometry>
                </mxCell>
                <mxCell id="249" value="AUTO_INCREMENT" style="shape=partialRectangle;connectable=0;fillColor=none;top=0;left=0;bottom=0;right=0;align=left;spacingLeft=6;overflow=hidden;rounded=1;strokeColor=#C87471;fontSize=9;" parent="32" vertex="1">
                    <mxGeometry x="235.40910200639178" width="121.59089799360822" height="30" as="geometry">
                        <mxRectangle width="121.59089799360822" height="30" as="alternateBounds"/>
                    </mxGeometry>
                </mxCell>
                <mxCell id="35" value="" style="shape=tableRow;horizontal=0;startSize=0;swimlaneHead=0;swimlaneBody=0;fillColor=none;collapsible=0;dropTarget=0;points=[[0,0.5],[1,0.5]];portConstraint=eastwest;top=0;left=0;right=0;bottom=0;rounded=1;" parent="28" vertex="1">
                    <mxGeometry y="90" width="357" height="30" as="geometry"/>
                </mxCell>
                <mxCell id="36" value="FK" style="shape=partialRectangle;connectable=0;fillColor=none;top=0;left=0;bottom=0;right=0;editable=1;overflow=hidden;rounded=1;" parent="35" vertex="1">
                    <mxGeometry width="48.92300180288464" height="30" as="geometry">
                        <mxRectangle width="48.92300180288464" height="30" as="alternateBounds"/>
                    </mxGeometry>
                </mxCell>
                <mxCell id="37" value="id_post" style="shape=partialRectangle;connectable=0;fillColor=none;top=0;left=0;bottom=0;right=0;align=left;spacingLeft=6;overflow=hidden;rounded=1;" parent="35" vertex="1">
                    <mxGeometry x="48.92300180288464" width="125.07699819711536" height="30" as="geometry">
                        <mxRectangle width="125.07699819711536" height="30" as="alternateBounds"/>
                    </mxGeometry>
                </mxCell>
                <mxCell id="244" value="\\" style="shape=partialRectangle;connectable=0;fillColor=none;top=0;left=0;bottom=0;right=0;align=center;spacingLeft=6;overflow=hidden;rounded=1;fontSize=9;" parent="35" vertex="1">
                    <mxGeometry x="174" width="61.40910200639178" height="30" as="geometry">
                        <mxRectangle width="61.40910200639178" height="30" as="alternateBounds"/>
                    </mxGeometry>
                </mxCell>
                <mxCell id="250" value="\\" style="shape=partialRectangle;connectable=0;fillColor=none;top=0;left=0;bottom=0;right=0;align=left;spacingLeft=6;overflow=hidden;rounded=1;fontSize=9;" parent="35" vertex="1">
                    <mxGeometry x="235.40910200639178" width="121.59089799360822" height="30" as="geometry">
                        <mxRectangle width="121.59089799360822" height="30" as="alternateBounds"/>
                    </mxGeometry>
                </mxCell>
                <mxCell id="38" value="" style="shape=tableRow;horizontal=0;startSize=0;swimlaneHead=0;swimlaneBody=0;fillColor=none;collapsible=0;dropTarget=0;points=[[0,0.5],[1,0.5]];portConstraint=eastwest;top=0;left=0;right=0;bottom=0;rounded=1;" parent="28" vertex="1">
                    <mxGeometry y="120" width="357" height="30" as="geometry"/>
                </mxCell>
                <mxCell id="39" value="" style="shape=partialRectangle;connectable=0;fillColor=none;top=0;left=0;bottom=0;right=0;editable=1;overflow=hidden;rounded=1;" parent="38" vertex="1">
                    <mxGeometry width="48.92300180288464" height="30" as="geometry">
                        <mxRectangle width="48.92300180288464" height="30" as="alternateBounds"/>
                    </mxGeometry>
                </mxCell>
                <mxCell id="40" value="audio" style="shape=partialRectangle;connectable=0;fillColor=none;top=0;left=0;bottom=0;right=0;align=left;spacingLeft=6;overflow=hidden;rounded=1;" parent="38" vertex="1">
                    <mxGeometry x="48.92300180288464" width="125.07699819711536" height="30" as="geometry">
                        <mxRectangle width="125.07699819711536" height="30" as="alternateBounds"/>
                    </mxGeometry>
                </mxCell>
                <mxCell id="245" value="VARBINARY" style="shape=partialRectangle;connectable=0;fillColor=none;top=0;left=0;bottom=0;right=0;align=center;spacingLeft=6;overflow=hidden;rounded=1;fontSize=9;" parent="38" vertex="1">
                    <mxGeometry x="174" width="61.40910200639178" height="30" as="geometry">
                        <mxRectangle width="61.40910200639178" height="30" as="alternateBounds"/>
                    </mxGeometry>
                </mxCell>
                <mxCell id="251" value="NULL" style="shape=partialRectangle;connectable=0;fillColor=none;top=0;left=0;bottom=0;right=0;align=left;spacingLeft=6;overflow=hidden;rounded=1;fontSize=9;" parent="38" vertex="1">
                    <mxGeometry x="235.40910200639178" width="121.59089799360822" height="30" as="geometry">
                        <mxRectangle width="121.59089799360822" height="30" as="alternateBounds"/>
                    </mxGeometry>
                </mxCell>
                <mxCell id="175" value="" style="shape=tableRow;horizontal=0;startSize=0;swimlaneHead=0;swimlaneBody=0;fillColor=none;collapsible=0;dropTarget=0;points=[[0,0.5],[1,0.5]];portConstraint=eastwest;top=0;left=0;right=0;bottom=0;rounded=1;" parent="28" vertex="1">
                    <mxGeometry y="150" width="357" height="30" as="geometry"/>
                </mxCell>
                <mxCell id="176" value="" style="shape=partialRectangle;connectable=0;fillColor=none;top=0;left=0;bottom=0;right=0;editable=1;overflow=hidden;rounded=1;" parent="175" vertex="1">
                    <mxGeometry width="48.92300180288464" height="30" as="geometry">
                        <mxRectangle width="48.92300180288464" height="30" as="alternateBounds"/>
                    </mxGeometry>
                </mxCell>
                <mxCell id="177" value="video" style="shape=partialRectangle;connectable=0;fillColor=none;top=0;left=0;bottom=0;right=0;align=left;spacingLeft=6;overflow=hidden;rounded=1;" parent="175" vertex="1">
                    <mxGeometry x="48.92300180288464" width="125.07699819711536" height="30" as="geometry">
                        <mxRectangle width="125.07699819711536" height="30" as="alternateBounds"/>
                    </mxGeometry>
                </mxCell>
                <mxCell id="246" value="VARBINARY" style="shape=partialRectangle;connectable=0;fillColor=none;top=0;left=0;bottom=0;right=0;align=center;spacingLeft=6;overflow=hidden;rounded=1;fontSize=9;" parent="175" vertex="1">
                    <mxGeometry x="174" width="61.40910200639178" height="30" as="geometry">
                        <mxRectangle width="61.40910200639178" height="30" as="alternateBounds"/>
                    </mxGeometry>
                </mxCell>
                <mxCell id="252" value="NULL" style="shape=partialRectangle;connectable=0;fillColor=none;top=0;left=0;bottom=0;right=0;align=left;spacingLeft=6;overflow=hidden;rounded=1;fontSize=9;" parent="175" vertex="1">
                    <mxGeometry x="235.40910200639178" width="121.59089799360822" height="30" as="geometry">
                        <mxRectangle width="121.59089799360822" height="30" as="alternateBounds"/>
                    </mxGeometry>
                </mxCell>
                <mxCell id="179" value="" style="shape=tableRow;horizontal=0;startSize=0;swimlaneHead=0;swimlaneBody=0;fillColor=none;collapsible=0;dropTarget=0;points=[[0,0.5],[1,0.5]];portConstraint=eastwest;top=0;left=0;right=0;bottom=0;rounded=1;" parent="28" vertex="1">
                    <mxGeometry y="180" width="357" height="30" as="geometry"/>
                </mxCell>
                <mxCell id="180" value="" style="shape=partialRectangle;connectable=0;fillColor=none;top=0;left=0;bottom=0;right=0;editable=1;overflow=hidden;rounded=1;" parent="179" vertex="1">
                    <mxGeometry width="48.92300180288464" height="30" as="geometry">
                        <mxRectangle width="48.92300180288464" height="30" as="alternateBounds"/>
                    </mxGeometry>
                </mxCell>
                <mxCell id="181" value="immagini" style="shape=partialRectangle;connectable=0;fillColor=none;top=0;left=0;bottom=0;right=0;align=left;spacingLeft=6;overflow=hidden;rounded=1;" parent="179" vertex="1">
                    <mxGeometry x="48.92300180288464" width="125.07699819711536" height="30" as="geometry">
                        <mxRectangle width="125.07699819711536" height="30" as="alternateBounds"/>
                    </mxGeometry>
                </mxCell>
                <mxCell id="247" value="IMAGE" style="shape=partialRectangle;connectable=0;fillColor=none;top=0;left=0;bottom=0;right=0;align=center;spacingLeft=6;overflow=hidden;rounded=1;fontSize=9;" parent="179" vertex="1">
                    <mxGeometry x="174" width="61.40910200639178" height="30" as="geometry">
                        <mxRectangle width="61.40910200639178" height="30" as="alternateBounds"/>
                    </mxGeometry>
                </mxCell>
                <mxCell id="253" value="NULL" style="shape=partialRectangle;connectable=0;fillColor=none;top=0;left=0;bottom=0;right=0;align=left;spacingLeft=6;overflow=hidden;rounded=1;fontSize=9;" parent="179" vertex="1">
                    <mxGeometry x="235.40910200639178" width="121.59089799360822" height="30" as="geometry">
                        <mxRectangle width="121.59089799360822" height="30" as="alternateBounds"/>
                    </mxGeometry>
                </mxCell>
                <mxCell id="41" value="Tags" style="shape=table;startSize=30;container=1;collapsible=1;childLayout=tableLayout;fixedRows=1;rowLines=0;fontStyle=1;align=center;resizeLast=1;fillColor=#ffe6cc;strokeColor=#d79b00;rounded=1;" parent="1" vertex="1">
                    <mxGeometry x="1193" y="-231" width="351" height="120" as="geometry"/>
                </mxCell>
                <mxCell id="42" value="" style="shape=tableRow;horizontal=0;startSize=0;swimlaneHead=0;swimlaneBody=0;fillColor=none;collapsible=0;dropTarget=0;points=[[0,0.5],[1,0.5]];portConstraint=eastwest;top=0;left=0;right=0;bottom=1;rounded=1;align=center;fontStyle=0" parent="41" vertex="1">
                    <mxGeometry y="30" width="351" height="30" as="geometry"/>
                </mxCell>
                <mxCell id="43" value="INDICI" style="shape=partialRectangle;connectable=0;fillColor=none;top=0;left=0;bottom=0;right=0;fontStyle=1;overflow=hidden;rounded=1;align=center;" parent="42" vertex="1">
                    <mxGeometry width="49.7857666015623" height="30" as="geometry">
                        <mxRectangle width="49.7857666015623" height="30" as="alternateBounds"/>
                    </mxGeometry>
                </mxCell>
                <mxCell id="44" value="NOME COLONNA" style="shape=partialRectangle;connectable=0;fillColor=none;top=0;left=0;bottom=0;right=0;align=center;spacingLeft=6;fontStyle=1;overflow=hidden;rounded=1;" parent="42" vertex="1">
                    <mxGeometry x="49.7857666015623" width="130.2142333984377" height="30" as="geometry">
                        <mxRectangle width="130.2142333984377" height="30" as="alternateBounds"/>
                    </mxGeometry>
                </mxCell>
                <mxCell id="211" value="TIPO" style="shape=partialRectangle;connectable=0;fillColor=none;top=0;left=0;bottom=0;right=0;align=center;spacingLeft=6;fontStyle=1;overflow=hidden;rounded=1;" parent="42" vertex="1">
                    <mxGeometry x="180" width="74.37043366608759" height="30" as="geometry">
                        <mxRectangle width="74.37043366608759" height="30" as="alternateBounds"/>
                    </mxGeometry>
                </mxCell>
                <mxCell id="214" value="ATTRIBUTO" style="shape=partialRectangle;connectable=0;fillColor=none;top=0;left=0;bottom=0;right=0;align=center;spacingLeft=6;fontStyle=1;overflow=hidden;rounded=1;" parent="42" vertex="1">
                    <mxGeometry x="254.3704336660876" width="96.62956633391241" height="30" as="geometry">
                        <mxRectangle width="96.62956633391241" height="30" as="alternateBounds"/>
                    </mxGeometry>
                </mxCell>
                <mxCell id="45" value="" style="shape=tableRow;horizontal=0;startSize=0;swimlaneHead=0;swimlaneBody=0;fillColor=none;collapsible=0;dropTarget=0;points=[[0,0.5],[1,0.5]];portConstraint=eastwest;top=0;left=0;right=0;bottom=0;rounded=1;" parent="41" vertex="1">
                    <mxGeometry y="60" width="351" height="30" as="geometry"/>
                </mxCell>
                <mxCell id="46" value="PK" style="shape=partialRectangle;connectable=0;fillColor=none;top=0;left=0;bottom=0;right=0;editable=1;overflow=hidden;rounded=1;" parent="45" vertex="1">
                    <mxGeometry width="49.7857666015623" height="30" as="geometry">
                        <mxRectangle width="49.7857666015623" height="30" as="alternateBounds"/>
                    </mxGeometry>
                </mxCell>
                <mxCell id="47" value="id_tag" style="shape=partialRectangle;connectable=0;fillColor=none;top=0;left=0;bottom=0;right=0;align=left;spacingLeft=6;overflow=hidden;rounded=1;strokeColor=#C87471;" parent="45" vertex="1">
                    <mxGeometry x="49.7857666015623" width="130.2142333984377" height="30" as="geometry">
                        <mxRectangle width="130.2142333984377" height="30" as="alternateBounds"/>
                    </mxGeometry>
                </mxCell>
                <mxCell id="212" value="INT" style="shape=partialRectangle;connectable=0;fillColor=none;top=0;left=0;bottom=0;right=0;align=center;spacingLeft=6;overflow=hidden;rounded=1;strokeColor=#C87471;fontSize=9;" parent="45" vertex="1">
                    <mxGeometry x="180" width="74.37043366608759" height="30" as="geometry">
                        <mxRectangle width="74.37043366608759" height="30" as="alternateBounds"/>
                    </mxGeometry>
                </mxCell>
                <mxCell id="215" value="AUTO_INCREMENT" style="shape=partialRectangle;connectable=0;fillColor=none;top=0;left=0;bottom=0;right=0;align=left;spacingLeft=6;overflow=hidden;rounded=1;strokeColor=#C87471;fontSize=9;" parent="45" vertex="1">
                    <mxGeometry x="254.3704336660876" width="96.62956633391241" height="30" as="geometry">
                        <mxRectangle width="96.62956633391241" height="30" as="alternateBounds"/>
                    </mxGeometry>
                </mxCell>
                <mxCell id="48" value="" style="shape=tableRow;horizontal=0;startSize=0;swimlaneHead=0;swimlaneBody=0;fillColor=none;collapsible=0;dropTarget=0;points=[[0,0.5],[1,0.5]];portConstraint=eastwest;top=0;left=0;right=0;bottom=0;rounded=1;" parent="41" vertex="1">
                    <mxGeometry y="90" width="351" height="30" as="geometry"/>
                </mxCell>
                <mxCell id="49" value="" style="shape=partialRectangle;connectable=0;fillColor=none;top=0;left=0;bottom=0;right=0;editable=1;overflow=hidden;rounded=1;" parent="48" vertex="1">
                    <mxGeometry width="49.7857666015623" height="30" as="geometry">
                        <mxRectangle width="49.7857666015623" height="30" as="alternateBounds"/>
                    </mxGeometry>
                </mxCell>
                <mxCell id="50" value="hashtag" style="shape=partialRectangle;connectable=0;fillColor=none;top=0;left=0;bottom=0;right=0;align=left;spacingLeft=6;overflow=hidden;rounded=1;" parent="48" vertex="1">
                    <mxGeometry x="49.7857666015623" width="130.2142333984377" height="30" as="geometry">
                        <mxRectangle width="130.2142333984377" height="30" as="alternateBounds"/>
                    </mxGeometry>
                </mxCell>
                <mxCell id="213" value="VARCHAR(80)" style="shape=partialRectangle;connectable=0;fillColor=none;top=0;left=0;bottom=0;right=0;align=center;spacingLeft=6;overflow=hidden;rounded=1;fontSize=9;" parent="48" vertex="1">
                    <mxGeometry x="180" width="74.37043366608759" height="30" as="geometry">
                        <mxRectangle width="74.37043366608759" height="30" as="alternateBounds"/>
                    </mxGeometry>
                </mxCell>
                <mxCell id="216" value="NOT NULL" style="shape=partialRectangle;connectable=0;fillColor=none;top=0;left=0;bottom=0;right=0;align=left;spacingLeft=6;overflow=hidden;rounded=1;fontSize=9;" parent="48" vertex="1">
                    <mxGeometry x="254.3704336660876" width="96.62956633391241" height="30" as="geometry">
                        <mxRectangle width="96.62956633391241" height="30" as="alternateBounds"/>
                    </mxGeometry>
                </mxCell>
                <mxCell id="54" value="Likes" style="shape=table;startSize=30;container=1;collapsible=1;childLayout=tableLayout;fixedRows=1;rowLines=0;fontStyle=1;align=center;resizeLast=1;fillColor=#e1d5e7;strokeColor=#9673a6;rounded=1;" parent="1" vertex="1">
                    <mxGeometry x="449" y="563" width="392.6875000000002" height="210" as="geometry"/>
                </mxCell>
                <mxCell id="55" value="" style="shape=tableRow;horizontal=0;startSize=0;swimlaneHead=0;swimlaneBody=0;fillColor=none;collapsible=0;dropTarget=0;points=[[0,0.5],[1,0.5]];portConstraint=eastwest;top=0;left=0;right=0;bottom=1;rounded=1;align=center;fontStyle=0" parent="54" vertex="1">
                    <mxGeometry y="30" width="392.6875000000002" height="30" as="geometry"/>
                </mxCell>
                <mxCell id="56" value="INDICI" style="shape=partialRectangle;connectable=0;fillColor=none;top=0;left=0;bottom=0;right=0;fontStyle=1;overflow=hidden;rounded=1;align=center;" parent="55" vertex="1">
                    <mxGeometry width="53.500069754464505" height="30" as="geometry">
                        <mxRectangle width="53.500069754464505" height="30" as="alternateBounds"/>
                    </mxGeometry>
                </mxCell>
                <mxCell id="57" value="NOME COLONNA" style="shape=partialRectangle;connectable=0;fillColor=none;top=0;left=0;bottom=0;right=0;align=center;spacingLeft=6;fontStyle=1;overflow=hidden;rounded=1;" parent="55" vertex="1">
                    <mxGeometry x="53.500069754464505" width="126.4999302455355" height="30" as="geometry">
                        <mxRectangle width="126.4999302455355" height="30" as="alternateBounds"/>
                    </mxGeometry>
                </mxCell>
                <mxCell id="222" value="TIPO" style="shape=partialRectangle;connectable=0;fillColor=none;top=0;left=0;bottom=0;right=0;align=center;spacingLeft=6;fontStyle=1;overflow=hidden;rounded=1;" parent="55" vertex="1">
                    <mxGeometry x="180" width="57.34788977581513" height="30" as="geometry">
                        <mxRectangle width="57.34788977581513" height="30" as="alternateBounds"/>
                    </mxGeometry>
                </mxCell>
                <mxCell id="227" value="ATTRIBUTO" style="shape=partialRectangle;connectable=0;fillColor=none;top=0;left=0;bottom=0;right=0;align=center;spacingLeft=6;fontStyle=1;overflow=hidden;rounded=1;" parent="55" vertex="1">
                    <mxGeometry x="237.34788977581513" width="155.3396102241851" height="30" as="geometry">
                        <mxRectangle width="155.3396102241851" height="30" as="alternateBounds"/>
                    </mxGeometry>
                </mxCell>
                <mxCell id="58" value="" style="shape=tableRow;horizontal=0;startSize=0;swimlaneHead=0;swimlaneBody=0;fillColor=none;collapsible=0;dropTarget=0;points=[[0,0.5],[1,0.5]];portConstraint=eastwest;top=0;left=0;right=0;bottom=0;rounded=1;" parent="54" vertex="1">
                    <mxGeometry y="60" width="392.6875000000002" height="30" as="geometry"/>
                </mxCell>
                <mxCell id="59" value="PK" style="shape=partialRectangle;connectable=0;fillColor=none;top=0;left=0;bottom=0;right=0;editable=1;overflow=hidden;rounded=1;" parent="58" vertex="1">
                    <mxGeometry width="53.500069754464505" height="30" as="geometry">
                        <mxRectangle width="53.500069754464505" height="30" as="alternateBounds"/>
                    </mxGeometry>
                </mxCell>
                <mxCell id="60" value="id_like" style="shape=partialRectangle;connectable=0;fillColor=none;top=0;left=0;bottom=0;right=0;align=left;spacingLeft=6;overflow=hidden;rounded=1;strokeColor=#C87471;" parent="58" vertex="1">
                    <mxGeometry x="53.500069754464505" width="126.4999302455355" height="30" as="geometry">
                        <mxRectangle width="126.4999302455355" height="30" as="alternateBounds"/>
                    </mxGeometry>
                </mxCell>
                <mxCell id="223" value="INT" style="shape=partialRectangle;connectable=0;fillColor=none;top=0;left=0;bottom=0;right=0;align=center;spacingLeft=6;overflow=hidden;rounded=1;strokeColor=#C87471;fontSize=9;" parent="58" vertex="1">
                    <mxGeometry x="180" width="57.34788977581513" height="30" as="geometry">
                        <mxRectangle width="57.34788977581513" height="30" as="alternateBounds"/>
                    </mxGeometry>
                </mxCell>
                <mxCell id="228" value="AUTO_INCREMENT" style="shape=partialRectangle;connectable=0;fillColor=none;top=0;left=0;bottom=0;right=0;align=left;spacingLeft=6;overflow=hidden;rounded=1;strokeColor=#C87471;fontSize=9;" parent="58" vertex="1">
                    <mxGeometry x="237.34788977581513" width="155.3396102241851" height="30" as="geometry">
                        <mxRectangle width="155.3396102241851" height="30" as="alternateBounds"/>
                    </mxGeometry>
                </mxCell>
                <mxCell id="61" value="" style="shape=tableRow;horizontal=0;startSize=0;swimlaneHead=0;swimlaneBody=0;fillColor=none;collapsible=0;dropTarget=0;points=[[0,0.5],[1,0.5]];portConstraint=eastwest;top=0;left=0;right=0;bottom=0;rounded=1;" parent="54" vertex="1">
                    <mxGeometry y="90" width="392.6875000000002" height="30" as="geometry"/>
                </mxCell>
                <mxCell id="62" value="FK" style="shape=partialRectangle;connectable=0;fillColor=none;top=0;left=0;bottom=0;right=0;editable=1;overflow=hidden;rounded=1;" parent="61" vertex="1">
                    <mxGeometry width="53.500069754464505" height="30" as="geometry">
                        <mxRectangle width="53.500069754464505" height="30" as="alternateBounds"/>
                    </mxGeometry>
                </mxCell>
                <mxCell id="63" value="id_post" style="shape=partialRectangle;connectable=0;fillColor=none;top=0;left=0;bottom=0;right=0;align=left;spacingLeft=6;overflow=hidden;rounded=1;" parent="61" vertex="1">
                    <mxGeometry x="53.500069754464505" width="126.4999302455355" height="30" as="geometry">
                        <mxRectangle width="126.4999302455355" height="30" as="alternateBounds"/>
                    </mxGeometry>
                </mxCell>
                <mxCell id="224" value="\\" style="shape=partialRectangle;connectable=0;fillColor=none;top=0;left=0;bottom=0;right=0;align=center;spacingLeft=6;overflow=hidden;rounded=1;fontSize=9;" parent="61" vertex="1">
                    <mxGeometry x="180" width="57.34788977581513" height="30" as="geometry">
                        <mxRectangle width="57.34788977581513" height="30" as="alternateBounds"/>
                    </mxGeometry>
                </mxCell>
                <mxCell id="229" value="\\" style="shape=partialRectangle;connectable=0;fillColor=none;top=0;left=0;bottom=0;right=0;align=left;spacingLeft=6;overflow=hidden;rounded=1;fontSize=9;" parent="61" vertex="1">
                    <mxGeometry x="237.34788977581513" width="155.3396102241851" height="30" as="geometry">
                        <mxRectangle width="155.3396102241851" height="30" as="alternateBounds"/>
                    </mxGeometry>
                </mxCell>
                <mxCell id="64" value="" style="shape=tableRow;horizontal=0;startSize=0;swimlaneHead=0;swimlaneBody=0;fillColor=none;collapsible=0;dropTarget=0;points=[[0,0.5],[1,0.5]];portConstraint=eastwest;top=0;left=0;right=0;bottom=0;rounded=1;" parent="54" vertex="1">
                    <mxGeometry y="120" width="392.6875000000002" height="30" as="geometry"/>
                </mxCell>
                <mxCell id="65" value="FK" style="shape=partialRectangle;connectable=0;fillColor=none;top=0;left=0;bottom=0;right=0;editable=1;overflow=hidden;rounded=1;" parent="64" vertex="1">
                    <mxGeometry width="53.500069754464505" height="30" as="geometry">
                        <mxRectangle width="53.500069754464505" height="30" as="alternateBounds"/>
                    </mxGeometry>
                </mxCell>
                <mxCell id="66" value="id_utente" style="shape=partialRectangle;connectable=0;fillColor=none;top=0;left=0;bottom=0;right=0;align=left;spacingLeft=6;overflow=hidden;rounded=1;" parent="64" vertex="1">
                    <mxGeometry x="53.500069754464505" width="126.4999302455355" height="30" as="geometry">
                        <mxRectangle width="126.4999302455355" height="30" as="alternateBounds"/>
                    </mxGeometry>
                </mxCell>
                <mxCell id="225" value="\\" style="shape=partialRectangle;connectable=0;fillColor=none;top=0;left=0;bottom=0;right=0;align=center;spacingLeft=6;overflow=hidden;rounded=1;fontSize=9;" parent="64" vertex="1">
                    <mxGeometry x="180" width="57.34788977581513" height="30" as="geometry">
                        <mxRectangle width="57.34788977581513" height="30" as="alternateBounds"/>
                    </mxGeometry>
                </mxCell>
                <mxCell id="230" value="\\" style="shape=partialRectangle;connectable=0;fillColor=none;top=0;left=0;bottom=0;right=0;align=left;spacingLeft=6;overflow=hidden;rounded=1;fontSize=9;" parent="64" vertex="1">
                    <mxGeometry x="237.34788977581513" width="155.3396102241851" height="30" as="geometry">
                        <mxRectangle width="155.3396102241851" height="30" as="alternateBounds"/>
                    </mxGeometry>
                </mxCell>
                <mxCell id="202" value="" style="shape=tableRow;horizontal=0;startSize=0;swimlaneHead=0;swimlaneBody=0;fillColor=none;collapsible=0;dropTarget=0;points=[[0,0.5],[1,0.5]];portConstraint=eastwest;top=0;left=0;right=0;bottom=0;rounded=1;" parent="54" vertex="1">
                    <mxGeometry y="150" width="392.6875000000002" height="30" as="geometry"/>
                </mxCell>
                <mxCell id="203" value="" style="shape=partialRectangle;connectable=0;fillColor=none;top=0;left=0;bottom=0;right=0;editable=1;overflow=hidden;rounded=1;" parent="202" vertex="1">
                    <mxGeometry width="53.500069754464505" height="30" as="geometry">
                        <mxRectangle width="53.500069754464505" height="30" as="alternateBounds"/>
                    </mxGeometry>
                </mxCell>
                <mxCell id="204" value="like" style="shape=partialRectangle;connectable=0;fillColor=none;top=0;left=0;bottom=0;right=0;align=left;spacingLeft=6;overflow=hidden;rounded=1;" parent="202" vertex="1">
                    <mxGeometry x="53.500069754464505" width="126.4999302455355" height="30" as="geometry">
                        <mxRectangle width="126.4999302455355" height="30" as="alternateBounds"/>
                    </mxGeometry>
                </mxCell>
                <mxCell id="226" value="TINYINT" style="shape=partialRectangle;connectable=0;fillColor=none;top=0;left=0;bottom=0;right=0;align=center;spacingLeft=6;overflow=hidden;rounded=1;fontSize=9;" parent="202" vertex="1">
                    <mxGeometry x="180" width="57.34788977581513" height="30" as="geometry">
                        <mxRectangle width="57.34788977581513" height="30" as="alternateBounds"/>
                    </mxGeometry>
                </mxCell>
                <mxCell id="231" value="NOT NULL, DEFAULT(FALSE)" style="shape=partialRectangle;connectable=0;fillColor=none;top=0;left=0;bottom=0;right=0;align=left;spacingLeft=6;overflow=hidden;rounded=1;fontSize=9;" parent="202" vertex="1">
                    <mxGeometry x="237.34788977581513" width="155.3396102241851" height="30" as="geometry">
                        <mxRectangle width="155.3396102241851" height="30" as="alternateBounds"/>
                    </mxGeometry>
                </mxCell>
                <mxCell id="265" value="" style="shape=tableRow;horizontal=0;startSize=0;swimlaneHead=0;swimlaneBody=0;fillColor=none;collapsible=0;dropTarget=0;points=[[0,0.5],[1,0.5]];portConstraint=eastwest;top=0;left=0;right=0;bottom=0;rounded=1;" vertex="1" parent="54">
                    <mxGeometry y="180" width="392.6875000000002" height="30" as="geometry"/>
                </mxCell>
                <mxCell id="266" value="" style="shape=partialRectangle;connectable=0;fillColor=none;top=0;left=0;bottom=0;right=0;editable=1;overflow=hidden;rounded=1;" vertex="1" parent="265">
                    <mxGeometry width="53.500069754464505" height="30" as="geometry">
                        <mxRectangle width="53.500069754464505" height="30" as="alternateBounds"/>
                    </mxGeometry>
                </mxCell>
                <mxCell id="267" value="data_ora" style="shape=partialRectangle;connectable=0;fillColor=none;top=0;left=0;bottom=0;right=0;align=left;spacingLeft=6;overflow=hidden;rounded=1;" vertex="1" parent="265">
                    <mxGeometry x="53.500069754464505" width="126.4999302455355" height="30" as="geometry">
                        <mxRectangle width="126.4999302455355" height="30" as="alternateBounds"/>
                    </mxGeometry>
                </mxCell>
                <mxCell id="268" value="DATETIME" style="shape=partialRectangle;connectable=0;fillColor=none;top=0;left=0;bottom=0;right=0;align=center;spacingLeft=6;overflow=hidden;rounded=1;fontSize=9;" vertex="1" parent="265">
                    <mxGeometry x="180" width="57.34788977581513" height="30" as="geometry">
                        <mxRectangle width="57.34788977581513" height="30" as="alternateBounds"/>
                    </mxGeometry>
                </mxCell>
                <mxCell id="269" value="NOT NULL" style="shape=partialRectangle;connectable=0;fillColor=none;top=0;left=0;bottom=0;right=0;align=left;spacingLeft=6;overflow=hidden;rounded=1;fontSize=9;" vertex="1" parent="265">
                    <mxGeometry x="237.34788977581513" width="155.3396102241851" height="30" as="geometry">
                        <mxRectangle width="155.3396102241851" height="30" as="alternateBounds"/>
                    </mxGeometry>
                </mxCell>
                <mxCell id="67" value="Comments" style="shape=table;startSize=30;container=1;collapsible=1;childLayout=tableLayout;fixedRows=1;rowLines=0;fontStyle=1;align=center;resizeLast=1;fillColor=#d5e8d4;strokeColor=#82b366;rounded=1;" parent="1" vertex="1">
                    <mxGeometry x="449" y="307" width="371.68751525878906" height="210" as="geometry"/>
                </mxCell>
                <mxCell id="68" value="" style="shape=tableRow;horizontal=0;startSize=0;swimlaneHead=0;swimlaneBody=0;fillColor=none;collapsible=0;dropTarget=0;points=[[0,0.5],[1,0.5]];portConstraint=eastwest;top=0;left=0;right=0;bottom=1;rounded=1;align=center;fontStyle=0" parent="67" vertex="1">
                    <mxGeometry y="30" width="371.68751525878906" height="30" as="geometry"/>
                </mxCell>
                <mxCell id="69" value="INDICI" style="shape=partialRectangle;connectable=0;fillColor=none;top=0;left=0;bottom=0;right=0;fontStyle=1;overflow=hidden;rounded=1;align=center;" parent="68" vertex="1">
                    <mxGeometry width="48.92300180288464" height="30" as="geometry">
                        <mxRectangle width="48.92300180288464" height="30" as="alternateBounds"/>
                    </mxGeometry>
                </mxCell>
                <mxCell id="70" value="NOME COLONNA" style="shape=partialRectangle;connectable=0;fillColor=none;top=0;left=0;bottom=0;right=0;align=center;spacingLeft=6;fontStyle=1;overflow=hidden;rounded=1;" parent="68" vertex="1">
                    <mxGeometry x="48.92300180288464" width="128.07698758230538" height="30" as="geometry">
                        <mxRectangle width="128.07698758230538" height="30" as="alternateBounds"/>
                    </mxGeometry>
                </mxCell>
                <mxCell id="232" value="TIPO" style="shape=partialRectangle;connectable=0;fillColor=none;top=0;left=0;bottom=0;right=0;align=center;spacingLeft=6;fontStyle=1;overflow=hidden;rounded=1;" parent="68" vertex="1">
                    <mxGeometry x="176.99998938519002" width="60.34790039062534" height="30" as="geometry">
                        <mxRectangle width="60.34790039062534" height="30" as="alternateBounds"/>
                    </mxGeometry>
                </mxCell>
                <mxCell id="237" value="ATTRIBUTO" style="shape=partialRectangle;connectable=0;fillColor=none;top=0;left=0;bottom=0;right=0;align=center;spacingLeft=6;fontStyle=1;overflow=hidden;rounded=1;" parent="68" vertex="1">
                    <mxGeometry x="237.34788977581536" width="134.3396254829737" height="30" as="geometry">
                        <mxRectangle width="134.3396254829737" height="30" as="alternateBounds"/>
                    </mxGeometry>
                </mxCell>
                <mxCell id="71" value="" style="shape=tableRow;horizontal=0;startSize=0;swimlaneHead=0;swimlaneBody=0;fillColor=none;collapsible=0;dropTarget=0;points=[[0,0.5],[1,0.5]];portConstraint=eastwest;top=0;left=0;right=0;bottom=0;rounded=1;" parent="67" vertex="1">
                    <mxGeometry y="60" width="371.68751525878906" height="30" as="geometry"/>
                </mxCell>
                <mxCell id="72" value="PK" style="shape=partialRectangle;connectable=0;fillColor=none;top=0;left=0;bottom=0;right=0;editable=1;overflow=hidden;rounded=1;" parent="71" vertex="1">
                    <mxGeometry width="48.92300180288464" height="30" as="geometry">
                        <mxRectangle width="48.92300180288464" height="30" as="alternateBounds"/>
                    </mxGeometry>
                </mxCell>
                <mxCell id="73" value="id_commento" style="shape=partialRectangle;connectable=0;fillColor=none;top=0;left=0;bottom=0;right=0;align=left;spacingLeft=6;overflow=hidden;rounded=1;strokeColor=#C87471;" parent="71" vertex="1">
                    <mxGeometry x="48.92300180288464" width="128.07698758230538" height="30" as="geometry">
                        <mxRectangle width="128.07698758230538" height="30" as="alternateBounds"/>
                    </mxGeometry>
                </mxCell>
                <mxCell id="233" value="INT" style="shape=partialRectangle;connectable=0;fillColor=none;top=0;left=0;bottom=0;right=0;align=center;spacingLeft=6;overflow=hidden;rounded=1;strokeColor=#C87471;fontSize=9;" parent="71" vertex="1">
                    <mxGeometry x="176.99998938519002" width="60.34790039062534" height="30" as="geometry">
                        <mxRectangle width="60.34790039062534" height="30" as="alternateBounds"/>
                    </mxGeometry>
                </mxCell>
                <mxCell id="238" value="AUTO_INCREMENT" style="shape=partialRectangle;connectable=0;fillColor=none;top=0;left=0;bottom=0;right=0;align=left;spacingLeft=6;overflow=hidden;rounded=1;strokeColor=#C87471;fontSize=9;" parent="71" vertex="1">
                    <mxGeometry x="237.34788977581536" width="134.3396254829737" height="30" as="geometry">
                        <mxRectangle width="134.3396254829737" height="30" as="alternateBounds"/>
                    </mxGeometry>
                </mxCell>
                <mxCell id="74" value="" style="shape=tableRow;horizontal=0;startSize=0;swimlaneHead=0;swimlaneBody=0;fillColor=none;collapsible=0;dropTarget=0;points=[[0,0.5],[1,0.5]];portConstraint=eastwest;top=0;left=0;right=0;bottom=0;rounded=1;" parent="67" vertex="1">
                    <mxGeometry y="90" width="371.68751525878906" height="30" as="geometry"/>
                </mxCell>
                <mxCell id="75" value="FK" style="shape=partialRectangle;connectable=0;fillColor=none;top=0;left=0;bottom=0;right=0;editable=1;overflow=hidden;rounded=1;" parent="74" vertex="1">
                    <mxGeometry width="48.92300180288464" height="30" as="geometry">
                        <mxRectangle width="48.92300180288464" height="30" as="alternateBounds"/>
                    </mxGeometry>
                </mxCell>
                <mxCell id="76" value="id_post" style="shape=partialRectangle;connectable=0;fillColor=none;top=0;left=0;bottom=0;right=0;align=left;spacingLeft=6;overflow=hidden;rounded=1;" parent="74" vertex="1">
                    <mxGeometry x="48.92300180288464" width="128.07698758230538" height="30" as="geometry">
                        <mxRectangle width="128.07698758230538" height="30" as="alternateBounds"/>
                    </mxGeometry>
                </mxCell>
                <mxCell id="234" value="\\" style="shape=partialRectangle;connectable=0;fillColor=none;top=0;left=0;bottom=0;right=0;align=center;spacingLeft=6;overflow=hidden;rounded=1;fontSize=9;" parent="74" vertex="1">
                    <mxGeometry x="176.99998938519002" width="60.34790039062534" height="30" as="geometry">
                        <mxRectangle width="60.34790039062534" height="30" as="alternateBounds"/>
                    </mxGeometry>
                </mxCell>
                <mxCell id="239" value="\\" style="shape=partialRectangle;connectable=0;fillColor=none;top=0;left=0;bottom=0;right=0;align=left;spacingLeft=6;overflow=hidden;rounded=1;fontSize=9;" parent="74" vertex="1">
                    <mxGeometry x="237.34788977581536" width="134.3396254829737" height="30" as="geometry">
                        <mxRectangle width="134.3396254829737" height="30" as="alternateBounds"/>
                    </mxGeometry>
                </mxCell>
                <mxCell id="77" value="" style="shape=tableRow;horizontal=0;startSize=0;swimlaneHead=0;swimlaneBody=0;fillColor=none;collapsible=0;dropTarget=0;points=[[0,0.5],[1,0.5]];portConstraint=eastwest;top=0;left=0;right=0;bottom=0;rounded=1;" parent="67" vertex="1">
                    <mxGeometry y="120" width="371.68751525878906" height="30" as="geometry"/>
                </mxCell>
                <mxCell id="78" value="FK" style="shape=partialRectangle;connectable=0;fillColor=none;top=0;left=0;bottom=0;right=0;editable=1;overflow=hidden;rounded=1;" parent="77" vertex="1">
                    <mxGeometry width="48.92300180288464" height="30" as="geometry">
                        <mxRectangle width="48.92300180288464" height="30" as="alternateBounds"/>
                    </mxGeometry>
                </mxCell>
                <mxCell id="79" value="id_utente" style="shape=partialRectangle;connectable=0;fillColor=none;top=0;left=0;bottom=0;right=0;align=left;spacingLeft=6;overflow=hidden;rounded=1;" parent="77" vertex="1">
                    <mxGeometry x="48.92300180288464" width="128.07698758230538" height="30" as="geometry">
                        <mxRectangle width="128.07698758230538" height="30" as="alternateBounds"/>
                    </mxGeometry>
                </mxCell>
                <mxCell id="235" value="\\" style="shape=partialRectangle;connectable=0;fillColor=none;top=0;left=0;bottom=0;right=0;align=center;spacingLeft=6;overflow=hidden;rounded=1;fontSize=9;" parent="77" vertex="1">
                    <mxGeometry x="176.99998938519002" width="60.34790039062534" height="30" as="geometry">
                        <mxRectangle width="60.34790039062534" height="30" as="alternateBounds"/>
                    </mxGeometry>
                </mxCell>
                <mxCell id="240" value="\\" style="shape=partialRectangle;connectable=0;fillColor=none;top=0;left=0;bottom=0;right=0;align=left;spacingLeft=6;overflow=hidden;rounded=1;fontSize=9;" parent="77" vertex="1">
                    <mxGeometry x="237.34788977581536" width="134.3396254829737" height="30" as="geometry">
                        <mxRectangle width="134.3396254829737" height="30" as="alternateBounds"/>
                    </mxGeometry>
                </mxCell>
                <mxCell id="207" value="" style="shape=tableRow;horizontal=0;startSize=0;swimlaneHead=0;swimlaneBody=0;fillColor=none;collapsible=0;dropTarget=0;points=[[0,0.5],[1,0.5]];portConstraint=eastwest;top=0;left=0;right=0;bottom=0;rounded=1;" parent="67" vertex="1">
                    <mxGeometry y="150" width="371.68751525878906" height="30" as="geometry"/>
                </mxCell>
                <mxCell id="208" value="" style="shape=partialRectangle;connectable=0;fillColor=none;top=0;left=0;bottom=0;right=0;editable=1;overflow=hidden;rounded=1;" parent="207" vertex="1">
                    <mxGeometry width="48.92300180288464" height="30" as="geometry">
                        <mxRectangle width="48.92300180288464" height="30" as="alternateBounds"/>
                    </mxGeometry>
                </mxCell>
                <mxCell id="209" value="testo" style="shape=partialRectangle;connectable=0;fillColor=none;top=0;left=0;bottom=0;right=0;align=left;spacingLeft=6;overflow=hidden;rounded=1;" parent="207" vertex="1">
                    <mxGeometry x="48.92300180288464" width="128.07698758230538" height="30" as="geometry">
                        <mxRectangle width="128.07698758230538" height="30" as="alternateBounds"/>
                    </mxGeometry>
                </mxCell>
                <mxCell id="236" value="TEXT" style="shape=partialRectangle;connectable=0;fillColor=none;top=0;left=0;bottom=0;right=0;align=center;spacingLeft=6;overflow=hidden;rounded=1;fontSize=9;" parent="207" vertex="1">
                    <mxGeometry x="176.99998938519002" width="60.34790039062534" height="30" as="geometry">
                        <mxRectangle width="60.34790039062534" height="30" as="alternateBounds"/>
                    </mxGeometry>
                </mxCell>
                <mxCell id="241" value="NOT NULL" style="shape=partialRectangle;connectable=0;fillColor=none;top=0;left=0;bottom=0;right=0;align=left;spacingLeft=6;overflow=hidden;rounded=1;fontSize=9;" parent="207" vertex="1">
                    <mxGeometry x="237.34788977581536" width="134.3396254829737" height="30" as="geometry">
                        <mxRectangle width="134.3396254829737" height="30" as="alternateBounds"/>
                    </mxGeometry>
                </mxCell>
                <mxCell id="255" value="" style="shape=tableRow;horizontal=0;startSize=0;swimlaneHead=0;swimlaneBody=0;fillColor=none;collapsible=0;dropTarget=0;points=[[0,0.5],[1,0.5]];portConstraint=eastwest;top=0;left=0;right=0;bottom=0;rounded=1;" vertex="1" parent="67">
                    <mxGeometry y="180" width="371.68751525878906" height="30" as="geometry"/>
                </mxCell>
                <mxCell id="256" value="" style="shape=partialRectangle;connectable=0;fillColor=none;top=0;left=0;bottom=0;right=0;editable=1;overflow=hidden;rounded=1;" vertex="1" parent="255">
                    <mxGeometry width="48.92300180288464" height="30" as="geometry">
                        <mxRectangle width="48.92300180288464" height="30" as="alternateBounds"/>
                    </mxGeometry>
                </mxCell>
                <mxCell id="257" value="data_ora" style="shape=partialRectangle;connectable=0;fillColor=none;top=0;left=0;bottom=0;right=0;align=left;spacingLeft=6;overflow=hidden;rounded=1;" vertex="1" parent="255">
                    <mxGeometry x="48.92300180288464" width="128.07698758230538" height="30" as="geometry">
                        <mxRectangle width="128.07698758230538" height="30" as="alternateBounds"/>
                    </mxGeometry>
                </mxCell>
                <mxCell id="258" value="DATETIME" style="shape=partialRectangle;connectable=0;fillColor=none;top=0;left=0;bottom=0;right=0;align=center;spacingLeft=6;overflow=hidden;rounded=1;fontSize=9;" vertex="1" parent="255">
                    <mxGeometry x="176.99998938519002" width="60.34790039062534" height="30" as="geometry">
                        <mxRectangle width="60.34790039062534" height="30" as="alternateBounds"/>
                    </mxGeometry>
                </mxCell>
                <mxCell id="259" value="NOT NULL" style="shape=partialRectangle;connectable=0;fillColor=none;top=0;left=0;bottom=0;right=0;align=left;spacingLeft=6;overflow=hidden;rounded=1;fontSize=9;" vertex="1" parent="255">
                    <mxGeometry x="237.34788977581536" width="134.3396254829737" height="30" as="geometry">
                        <mxRectangle width="134.3396254829737" height="30" as="alternateBounds"/>
                    </mxGeometry>
                </mxCell>
                <mxCell id="173" value="" style="edgeStyle=entityRelationEdgeStyle;fontSize=12;html=1;endArrow=ERoneToMany;rounded=1;fillColor=#dae8fc;strokeColor=#6c8ebf;strokeWidth=2;" parent="1" source="3" target="22" edge="1">
                    <mxGeometry width="100" height="100" relative="1" as="geometry">
                        <mxPoint x="478" y="68" as="sourcePoint"/>
                        <mxPoint x="578" y="-32" as="targetPoint"/>
                    </mxGeometry>
                </mxCell>
                <mxCell id="178" value="" style="edgeStyle=entityRelationEdgeStyle;fontSize=12;html=1;endArrow=ERoneToMany;rounded=1;fillColor=#fff2cc;strokeColor=#d6b656;strokeWidth=2;" parent="1" source="19" target="35" edge="1">
                    <mxGeometry width="100" height="100" relative="1" as="geometry">
                        <mxPoint x="331" y="-116" as="sourcePoint"/>
                        <mxPoint x="471" y="-88" as="targetPoint"/>
                    </mxGeometry>
                </mxCell>
                <mxCell id="182" value="" style="edgeStyle=entityRelationEdgeStyle;fontSize=12;html=1;endArrow=ERoneToMany;rounded=1;fillColor=#d5e8d4;strokeColor=#82b366;strokeWidth=2;" parent="1" source="19" target="74" edge="1">
                    <mxGeometry width="100" height="100" relative="1" as="geometry">
                        <mxPoint x="880" y="-118" as="sourcePoint"/>
                        <mxPoint x="866" y="186" as="targetPoint"/>
                    </mxGeometry>
                </mxCell>
                <mxCell id="183" value="" style="edgeStyle=entityRelationEdgeStyle;fontSize=12;html=1;endArrow=ERoneToMany;rounded=1;fillColor=#d5e8d4;strokeColor=#82b366;strokeWidth=2;" parent="1" source="3" target="77" edge="1">
                    <mxGeometry width="100" height="100" relative="1" as="geometry">
                        <mxPoint x="880" y="-118" as="sourcePoint"/>
                        <mxPoint x="903.9999999999995" y="418" as="targetPoint"/>
                    </mxGeometry>
                </mxCell>
                <mxCell id="184" value="" style="edgeStyle=entityRelationEdgeStyle;fontSize=12;html=1;endArrow=ERoneToMany;rounded=1;fillColor=#e1d5e7;strokeColor=#9673a6;strokeWidth=2;" parent="1" source="3" target="64" edge="1">
                    <mxGeometry width="100" height="100" relative="1" as="geometry">
                        <mxPoint x="330.99999999999955" y="-116" as="sourcePoint"/>
                        <mxPoint x="677" y="448" as="targetPoint"/>
                    </mxGeometry>
                </mxCell>
                <mxCell id="185" value="" style="edgeStyle=entityRelationEdgeStyle;fontSize=12;html=1;endArrow=ERoneToMany;rounded=1;fillColor=#e1d5e7;strokeColor=#9673a6;strokeWidth=2;" parent="1" source="19" target="61" edge="1">
                    <mxGeometry width="100" height="100" relative="1" as="geometry">
                        <mxPoint x="330.99999999999955" y="-116" as="sourcePoint"/>
                        <mxPoint x="407" y="443" as="targetPoint"/>
                    </mxGeometry>
                </mxCell>
                <mxCell id="187" value="posts_tags" style="shape=table;startSize=30;container=1;collapsible=1;childLayout=tableLayout;fixedRows=1;rowLines=0;fontStyle=1;align=center;resizeLast=1;fillColor=#1ba1e2;strokeColor=#006EAF;rounded=1;fontColor=#ffffff;" parent="1" vertex="1">
                    <mxGeometry x="940" y="-231" width="180" height="120" as="geometry"/>
                </mxCell>
                <mxCell id="188" value="" style="shape=tableRow;horizontal=0;startSize=0;swimlaneHead=0;swimlaneBody=0;fillColor=none;collapsible=0;dropTarget=0;points=[[0,0.5],[1,0.5]];portConstraint=eastwest;top=0;left=0;right=0;bottom=1;rounded=1;align=center;fontStyle=0" parent="187" vertex="1">
                    <mxGeometry y="30" width="180" height="30" as="geometry"/>
                </mxCell>
                <mxCell id="189" value="INDICI" style="shape=partialRectangle;connectable=0;fillColor=none;top=0;left=0;bottom=0;right=0;fontStyle=1;overflow=hidden;rounded=1;align=center;" parent="188" vertex="1">
                    <mxGeometry width="49.7857666015623" height="30" as="geometry">
                        <mxRectangle width="49.7857666015623" height="30" as="alternateBounds"/>
                    </mxGeometry>
                </mxCell>
                <mxCell id="190" value="NOME COLONNA" style="shape=partialRectangle;connectable=0;fillColor=none;top=0;left=0;bottom=0;right=0;align=center;spacingLeft=6;fontStyle=1;overflow=hidden;rounded=1;" parent="188" vertex="1">
                    <mxGeometry x="49.7857666015623" width="130.2142333984377" height="30" as="geometry">
                        <mxRectangle width="130.2142333984377" height="30" as="alternateBounds"/>
                    </mxGeometry>
                </mxCell>
                <mxCell id="191" value="" style="shape=tableRow;horizontal=0;startSize=0;swimlaneHead=0;swimlaneBody=0;fillColor=none;collapsible=0;dropTarget=0;points=[[0,0.5],[1,0.5]];portConstraint=eastwest;top=0;left=0;right=0;bottom=0;rounded=1;" parent="187" vertex="1">
                    <mxGeometry y="60" width="180" height="30" as="geometry"/>
                </mxCell>
                <mxCell id="192" value="PK" style="shape=partialRectangle;connectable=0;fillColor=none;top=0;left=0;bottom=0;right=0;editable=1;overflow=hidden;rounded=1;" parent="191" vertex="1">
                    <mxGeometry width="49.7857666015623" height="30" as="geometry">
                        <mxRectangle width="49.7857666015623" height="30" as="alternateBounds"/>
                    </mxGeometry>
                </mxCell>
                <mxCell id="193" value="id_tag" style="shape=partialRectangle;connectable=0;fillColor=none;top=0;left=0;bottom=0;right=0;align=left;spacingLeft=6;overflow=hidden;rounded=1;strokeColor=#C87471;" parent="191" vertex="1">
                    <mxGeometry x="49.7857666015623" width="130.2142333984377" height="30" as="geometry">
                        <mxRectangle width="130.2142333984377" height="30" as="alternateBounds"/>
                    </mxGeometry>
                </mxCell>
                <mxCell id="194" value="" style="shape=tableRow;horizontal=0;startSize=0;swimlaneHead=0;swimlaneBody=0;fillColor=none;collapsible=0;dropTarget=0;points=[[0,0.5],[1,0.5]];portConstraint=eastwest;top=0;left=0;right=0;bottom=0;rounded=1;" parent="187" vertex="1">
                    <mxGeometry y="90" width="180" height="30" as="geometry"/>
                </mxCell>
                <mxCell id="195" value="FK" style="shape=partialRectangle;connectable=0;fillColor=none;top=0;left=0;bottom=0;right=0;editable=1;overflow=hidden;rounded=1;" parent="194" vertex="1">
                    <mxGeometry width="49.7857666015623" height="30" as="geometry">
                        <mxRectangle width="49.7857666015623" height="30" as="alternateBounds"/>
                    </mxGeometry>
                </mxCell>
                <mxCell id="196" value="id_post" style="shape=partialRectangle;connectable=0;fillColor=none;top=0;left=0;bottom=0;right=0;align=left;spacingLeft=6;overflow=hidden;rounded=1;" parent="194" vertex="1">
                    <mxGeometry x="49.7857666015623" width="130.2142333984377" height="30" as="geometry">
                        <mxRectangle width="130.2142333984377" height="30" as="alternateBounds"/>
                    </mxGeometry>
                </mxCell>
                <mxCell id="200" value="" style="edgeStyle=entityRelationEdgeStyle;fontSize=12;html=1;endArrow=ERmany;startArrow=ERmany;rounded=1;strokeWidth=2;exitX=0.999;exitY=0.205;exitDx=0;exitDy=0;exitPerimeter=0;fillColor=#0050ef;strokeColor=#001DBC;" parent="1" source="19" target="194" edge="1">
                    <mxGeometry width="100" height="100" relative="1" as="geometry">
                        <mxPoint x="927" y="29" as="sourcePoint"/>
                        <mxPoint x="1027" y="-71" as="targetPoint"/>
                    </mxGeometry>
                </mxCell>
                <mxCell id="201" value="" style="edgeStyle=entityRelationEdgeStyle;fontSize=12;html=1;endArrow=ERmany;startArrow=ERmany;rounded=1;strokeWidth=2;fillColor=#0050ef;strokeColor=#001DBC;align=center;fontStyle=0" parent="1" source="45" target="191" edge="1">
                    <mxGeometry width="100" height="100" relative="1" as="geometry">
                        <mxPoint x="879.5909999999999" y="-126.84999999999991" as="sourcePoint"/>
                        <mxPoint x="1000" y="-88" as="targetPoint"/>
                    </mxGeometry>
                </mxCell>
            </root>
        </mxGraphModel>
    </diagram>
</mxfile>